<svg xmlns="http://www.w3.org/2000/svg" width="57.054" height="100.991" viewBox="0 0 57.054 100.991"><path d="M337.921,538.256a3.954,3.954,0,0,0,.081.974l2.446,10.678A3.164,3.164,0,0,0,342,551.783l.166.078,5.38,2.449v11.981l-2.53,2.934-.16.244a3.03,3.03,0,0,0-.736,2.2l.492,11.9a3.166,3.166,0,0,0,2.934,3.018,3.229,3.229,0,0,0,3.26-3.018l.407-10.349,3.179-3.26,3.178,3.26.407,10.349a3.1,3.1,0,0,0,6.194,0l.492-11.9a2.914,2.914,0,0,0-.736-2.2l-.16-.244-2.042-2.283V554.31l5.383-2.449.163-.078a3.238,3.238,0,0,0,1.547-1.876l2.443-10.678a2.944,2.944,0,0,0,.085-.9h0c6.2-6.2,11.981-14.182,11.981-22.333h0v-1.873a28.527,28.527,0,1,0-57.054,0V516h0c0,8.067,5.543,15.976,11.655,22.255Zm18.911-1.716a6.067,6.067,0,0,0-7.255,3.1,4.507,4.507,0,0,0-.163,2.524,7.513,7.513,0,0,1-2.361-5.461,2.336,2.336,0,0,1,.078-.733,53.658,53.658,0,0,1-3.993-19.888v-1.466a5.009,5.009,0,0,1,4.973-5.054,5.07,5.07,0,0,1,5.051,4.725v14.833a10.1,10.1,0,0,1,1.631-.163,9.085,9.085,0,0,1,1.55.163V514.288a5.058,5.058,0,0,1,10.105.329v1.466a53.659,53.659,0,0,1-3.993,19.888v.733a7.88,7.88,0,0,1-1.713,4.813,4.97,4.97,0,0,0-3.911-4.976Zm-7.337,5.95a5.329,5.329,0,0,0,3.751,3.426c3.016.9,6.275-.573,7.252-3.1.081-.16.081-.326.163-.489h0a5.466,5.466,0,0,0,2.853-3.748,4.358,4.358,0,0,1,2.527-2.934,52.9,52.9,0,0,0,2.12-6.927,57.361,57.361,0,0,0,1.465-12.557h0v-1.544a5.08,5.08,0,0,1,5.054-5.054,5.011,5.011,0,0,1,4.973,5.054V516h0c0,6.927-4.973,13.938-10.6,19.643h.081c-.407.244-.651.407-.651.488a2.528,2.528,0,0,0-2.12,1.791l-2.853,8.887-4.566,1.791h-8.637l-4.565-1.791-2.853-8.887a5.282,5.282,0,0,0-2.446-2.361c-5.543-5.624-10.434-12.635-10.6-19.562v-1.384a5.054,5.054,0,0,1,10.108,0V516a53.364,53.364,0,0,0,1.466,12.717,36.46,36.46,0,0,0,2.12,6.927,3.916,3.916,0,0,1,2.446,2.934,5.566,5.566,0,0,0,2.934,3.748,1.458,1.458,0,0,0,.57.163Zm21.76-4.481a1.15,1.15,0,0,0-.16-.491v-.081a1.189,1.189,0,0,1,.16.573Z" transform="translate(-326.266 -485.598)" fill="#b9b9b9" fill-rule="evenodd"/></svg>