<svg xmlns="http://www.w3.org/2000/svg" width="88.043" height="88.275" viewBox="0 0 88.043 88.275"><path d="M403.531,563.338a7.376,7.376,0,0,0-14.752,0,7.376,7.376,0,1,0,14.752,0ZM382.015,631.07c-2.2-1.058-6.685-2.446-10.024.9-4,3.993-9.213.078-9.457-.081l-.081.16c-2.2-1.137-6.848-2.687-10.271.736-3.993,4-9.21.163-9.454,0l-.326.41.326-.491c-.081,0-6.848-4.563-11.492.081a5.926,5.926,0,0,1-5.3,1.713l18.341-84.767c9.942-.407,21.842,8.965,29.833,16.546a2.51,2.51,0,0,0,.485,3.5,53.037,53.037,0,0,0,21.6,12.065v17.113l-9.861.654a6.181,6.181,0,0,0-5.705,6.031,6.948,6.948,0,0,0-.163,1.387,122.55,122.55,0,0,1-.492,15.97,4.2,4.2,0,0,0,3.751,4.569h.407a4.169,4.169,0,0,0,4.155-3.833c.41-4.484.651-8.4.651-12.062l14.511-1.061a6.064,6.064,0,0,0,5.705-6.52c0-.163-.081-.323-.081-.57s.081-.57.081-.814V578.338c0-7.34-10.027-8.235-12.472-2.693a47.66,47.66,0,0,1-17.768-10.108,3.149,3.149,0,0,0-2.934-.73c-8.721-8.317-22.333-18.91-33.581-17.282l.326,2.12-18.256,84.523a20.2,20.2,0,0,1-2.69-1.387l-.651.817a10.371,10.371,0,0,0,3.178,1.628l-.081.082h.326a11.081,11.081,0,0,0,2.446.326,6.828,6.828,0,0,0,4.973-2.035c3.993-4,9.779-.163,10.105,0a10.935,10.935,0,0,0,5.95,2.035A6.954,6.954,0,0,0,353,633.6c3.992-4.08,9.861-.163,10.1.078l.081-.16a9.246,9.246,0,0,0,4.647,1.3,6.721,6.721,0,0,0,4.973-2.12c3.1-3.1,7.418-1.384,9.21-.407Z" transform="translate(-321.131 -547.357)" fill="#b9b9b9" fill-rule="evenodd"/></svg>