<svg xmlns="http://www.w3.org/2000/svg" width="81.44" height="73.441" viewBox="0 0 81.44 73.441"><path d="M106.121,618.792a4.612,4.612,0,0,0,4.566-4.569,4.564,4.564,0,0,0-9.128,0,4.609,4.609,0,0,0,4.563,4.569Zm32.034,43.442a7.508,7.508,0,0,0-6.278-3.911H130a9.074,9.074,0,0,1-5.621-2.446L110.687,641.04l.081-17.113c2.771-2.364,5.95-5.3,6.6-6.441a25.977,25.977,0,0,0,1.224-5.868,1.931,1.931,0,0,0-1.713-2.12h-.244a2.009,2.009,0,0,0-1.957,1.71,21.254,21.254,0,0,1-.814,4.487,41.463,41.463,0,0,1-4.158,3.993h-6.764a54.4,54.4,0,0,1-4.158-3.993,21.254,21.254,0,0,1-.814-4.487,1.945,1.945,0,0,0-1.957-1.71H95.85a1.992,1.992,0,0,0-1.791,2.12c.081.655.489,4.321,1.306,5.868.485,1.062,3.5,3.751,6.109,6.034l.41,17.52L87.865,668.183a2.807,2.807,0,0,1-2.53,1.55,3.036,3.036,0,0,1-1.221-.241L78.9,666.881a4.774,4.774,0,0,0-2.12-.488,5.006,5.006,0,0,0-4.321,2.443l-6.031,11.088a2,2,0,0,0-.081,2.12,2.025,2.025,0,0,0,1.876.9h77.186a2.222,2.222,0,0,0,1.876-.9,2.195,2.195,0,0,0-.081-2.12Zm-34.724-20.213,5.624.081,13.938,15.078a9.924,9.924,0,0,0,3.341,2.2,1.689,1.689,0,0,0-.489.814l-4.077,11.492a1.085,1.085,0,0,1-1.954.41l-.492-.573a28.863,28.863,0,0,1-2.2-3.016l-.733-1.221c-.489-.9-1.3-1.221-1.876-.811-.489.486-1.14.078-1.469-.983l-1.221-3.5c-.326-1.058-1.14-1.14-1.794-.326L108,664.191c-.651.814-1.224.654-1.224-.407v-4c0-1.059-.651-1.3-1.384-.651l-1.876,1.713c-.814.733-1.3.492-1.14-.57l1.058-6.851c.163-1.055-.326-1.3-1.143-.648l-.4.4c-.817.657-1.306.329-1.143-.648l1.547-8.154Zm3.26-4.074a3.412,3.412,0,0,0-.407-.085,2.509,2.509,0,0,0-.736.163v-4.318h1.143ZM131.877,660.2a5.877,5.877,0,0,1,4.647,2.856l4.074,8.069-1.221-.41c-.98-.323-1.794.166-1.794,1.059s-.488.983-1.058.163l-.163-.244c-.654-.811-1.387-1.547-1.794-1.547s-.977-.648-1.3-1.55c-.329-.814-.98-1.218-1.387-.814-.489.407-.9-.16-.9-1.14V665.9a1.753,1.753,0,0,0-1.631-1.873c-.9,0-1.466-.817-1.221-1.876,0,0,.16-.651.326-1.465a.9.9,0,0,0,0-.651,5.363,5.363,0,0,0,1.547.16Z" transform="translate(-66.078 -609.498)" fill="#e39020" fill-rule="evenodd"/></svg>