<svg xmlns="http://www.w3.org/2000/svg" width="86.407" height="76.65" viewBox="0 0 86.407 76.65"><path d="M584.324,344.57a30.108,30.108,0,0,0,8.8-1.466M599,337.4c-6.357-5.051-7.256-7.5-10.027-9.535-2.771-1.957-4.237-1.469-4.315-2.283,0,0,.567-4.155-.733-4.891-.654-.326-2.937,4.158-2.937,4.158s-8.4-2.117-13.205,5.624a1.771,1.771,0,0,1-.244.407,10.361,10.361,0,0,1-.567-1.469,2.541,2.541,0,0,0,.078-1.547,2.433,2.433,0,0,0-2.934-1.794l-6.52,1.713-7.662-2.364a5.874,5.874,0,0,0-2.937-.244,5.785,5.785,0,0,0-4.481,6.848l1.55,7.744c-3.67-.654-7.988-.654-14.345,1.954-1.387.736-2.2.407-3.667.407-1.387,0-9.131,1.713-9.212,8.477s-.492,9.047-3.341,11.411c2.69.41,11.248,2.364,11.492-11.981,0-2.039,1.469-4.237,3.26-4.484-3.83,4.647-1.221,11.655-1.629,13.042-.326,1.3-3.178,3.748-3.67,7.093-.57,3.341,1.794,21.6,1.794,21.6H528.9s-.41-21.6,1.466-21.76,5.949,21.76,5.949,21.76h5.139s-3.51-17.93-3.1-20.05a5.925,5.925,0,0,1,4.077-4.321c1.791-.4,15.892-.73,17.116.166s2.361,3.83,2.361,7.171c-.081,3.341-2.036,17.035-2.036,17.035h4.4s2.039-22.577,4.647-22.659c2.606,0,2.768,22.659,2.768,22.659h3.917s-.9-19.152.078-27.55c.733-5.705,3.26-11.9,4.888-15.485a25.556,25.556,0,0,0,3.591.326h.16c.651,0,1.224-.081,1.873-.081a39.987,39.987,0,0,0,6.93-1.384h0c1.384-.407,2.853-.98,4.322-1.55a2.915,2.915,0,0,0,1.469-.814,4.552,4.552,0,0,0,.9-1.306s.489-.977-.817-2.039Zm-17.931,5.787a20.6,20.6,0,0,0,5.054.166,3.952,3.952,0,0,1,.977-.081c.733-.163,1.469-.244,2.2-.41a32.506,32.506,0,0,0,5.624-1.547c-2.364-.489-6.6,0-7.825-.163-3.42-.57-3.83-1.954-5.051.081a19.628,19.628,0,0,0-.98,1.954Zm-14.264-11c-.244-.573-.489-1.224-.733-1.876l-3.26,1.143-4.647,1.221a1.791,1.791,0,0,1-.651.081,2.251,2.251,0,0,1-.733-.081l-2.612-.817L556.2,341.88H554.25c5.947.326,10.105.817,10.512-2.283a26.144,26.144,0,0,1,2.039-7.415Zm-17.116-9.62a6.633,6.633,0,0,0,1.631-9.128,6.558,6.558,0,1,0-1.631,9.128ZM561.5,341.717l-.163.163h.244Zm23.558-13.531a1.546,1.546,0,0,1,1.544,1.55,1.568,1.568,0,0,1-1.544,1.632,1.641,1.641,0,0,1-1.634-1.632,1.624,1.624,0,0,1,1.634-1.55Z" transform="translate(-513.495 -310.629)" fill="#b9b9b9" fill-rule="evenodd"/></svg>