<svg xmlns="http://www.w3.org/2000/svg" width="76.025" height="83.997" viewBox="0 0 76.025 83.997"><path d="M94.69,284.578c4.566,3.178,15.488,10.841,17.282,12.225,2.28,1.794,7.663,6.523,1.954,13.531-4.155,5.135-9.861,12.717-12.306,16.058l28.853-3.341c.163,0,6.438-.407,8.64-4.155a7.086,7.086,0,0,0,.247-5.543l3.016-.329c.977,3.182.811,5.95-.492,8.151-2.361,4-7.663,4.973-9.7,5.217a4.733,4.733,0,0,1-.814.081l-63.414,7.252-.98-3.338,21.848-2.53s14.019-17.93,15.485-19.884.977-3.589-.977-5.054c-1.876-1.387-5.135-3.341-7.988-5.3-2.69-1.791-6.686-7.174-3.5-13.124l-11.984-.163s-.733,2.2-1.547,2.771a4.772,4.772,0,0,1-2.283.733l.081-3.911-3.748-1.058,3.667-.817c-.081.081.081-3.585.081-3.585a3.378,3.378,0,0,1,2.283.817,6.287,6.287,0,0,1,1.387,2.28l11.164.163s.9-7.907,10.678-14.833c2.446-1.794,7.255-2.853,9.861.814s5.057,12.147,5.057,12.147,9.047-.329,11.489-.163c5.054.323,5.624,3.423,0,4.644-9.047,2.039-13.365,2.853-15.241,1.387-1.794-1.469-3.993-5.543-3.993-5.543l-2.853,4.562Zm23.883-31.95a6.874,6.874,0,1,0-1.631,9.535,6.81,6.81,0,0,0,1.631-9.535Z" transform="translate(-66.977 -249.728)" fill="#b9b9b9" fill-rule="evenodd"/></svg>