<svg xmlns="http://www.w3.org/2000/svg" width="97.118" height="66.747" viewBox="0 0 97.118 66.747"><path d="M78.9,37.09c-.267,0-.526.03-.788.04L73.548,15.852H84.964V9.784H69.794a3.034,3.034,0,0,0-2.967,3.671l1.815,8.466H37.593l-3.034-9.1h7.929V6.75H21.249v6.068h6.918l3.158,9.474-7.8,15.594A18.2,18.2,0,1,0,36.147,58.329h7.918A6.041,6.041,0,0,0,48.8,56.052L70.217,29.28,72.173,38.4A18.175,18.175,0,1,0,78.9,37.09ZM18.215,67.431a12.136,12.136,0,1,1,2.538-24L15.5,53.938l.027.013a3,3,0,1,0,5.37,2.686l.03.013,5.224-10.459a12.085,12.085,0,0,1-7.94,21.238Zm17.932-15.17a18.2,18.2,0,0,0-7.2-11.64l5.092-10.189,7.276,21.829Zm10.491-3.217-7.02-21.055H63.48ZM78.9,67.431a12.1,12.1,0,0,1-5.418-22.937l2.452,11.438.059-.013A2.991,2.991,0,0,0,78.9,58.329a3.034,3.034,0,0,0,3.034-3.034,2.869,2.869,0,0,0-.127-.626l.059-.013L79.411,43.207A12.115,12.115,0,1,1,78.9,67.431Z" transform="translate(0.006 -6.75)" fill="#e39020"/></svg>