<svg xmlns="http://www.w3.org/2000/svg" width="92.308" height="92.161" viewBox="0 0 92.308 92.161"><path d="M345.754,813.292a3,3,0,0,0-4.321,0,2.461,2.461,0,0,1-3.5,0,8.76,8.76,0,0,0-12.147,0,2.614,2.614,0,0,1-3.5,0,8.756,8.756,0,0,0-12.144,0,2.614,2.614,0,0,1-3.5,0l-.163-.166a8.9,8.9,0,0,0-12.062.166,2.513,2.513,0,0,1-3.426,0,9.023,9.023,0,0,0-12.225,0,2.614,2.614,0,0,1-3.5,0,8.76,8.76,0,0,0-12.147,0,2.461,2.461,0,0,1-3.5,0,3.055,3.055,0,0,0-4.321,4.318,8.607,8.607,0,0,0,12.147,0,2.614,2.614,0,0,1,3.5,0,8.863,8.863,0,0,0,12.225,0,2.514,2.514,0,0,1,3.426,0,8.663,8.663,0,0,0,12.225,0,2.614,2.614,0,0,1,3.5,0l.163.163a8.806,8.806,0,0,0,11.984-.163,2.615,2.615,0,0,1,3.5,0,8.762,8.762,0,0,0,12.144,0,2.619,2.619,0,0,1,3.507,0,8.6,8.6,0,0,0,12.144,0,3,3,0,0,0,0-4.318Zm-64.15-7.258a4.494,4.494,0,0,1-2.605,1.96,4.355,4.355,0,0,1-3.178-.491,4.492,4.492,0,0,1-1.957-2.612,3.331,3.331,0,0,1,.489-3.016l17.279-29.745a7.457,7.457,0,0,1,2.53-2.527l22.33-13.528,15.078-25.433a4.262,4.262,0,0,1,3.016-2.527,5.089,5.089,0,0,1,3.914.654,4.631,4.631,0,0,1,2.446,3.1,4.778,4.778,0,0,1-.326,3.83c-3.019,5.051-17.523,31.461-20.786,33.252l-26.244,16.305Zm-1.058-25.671a7.377,7.377,0,0,0,7.337-7.337,7.52,7.52,0,0,0-2.12-5.3,6.871,6.871,0,0,0-5.217-2.283,7.167,7.167,0,0,0-5.3,2.283,7.263,7.263,0,0,0-2.2,5.3,6.779,6.779,0,0,0,2.2,5.135,7.389,7.389,0,0,0,5.3,2.2Z" transform="translate(-254.362 -727.973)" fill="#b9b9b9" fill-rule="evenodd"/></svg>