<?xml version="1.0" encoding="utf-8"?>
<!-- Generator: Adobe Illustrator 22.1.0, SVG Export Plug-In . SVG Version: 6.00 Build 0)  -->
<svg version="1.1" id="Calque_1" xmlns="http://www.w3.org/2000/svg" xmlns:xlink="http://www.w3.org/1999/xlink" x="0px" y="0px"
	 viewBox="0 0 1920 1080" style="enable-background:new 0 0 1920 1080;" xml:space="preserve">
<style type="text/css">
	.st0{fill-rule:evenodd;clip-rule:evenodd;}
</style>
<path class="st0" d="M1958.3,559.5l-0.3,15.7l4-4.6C1962.5,566.5,1960.9,557.4,1958.3,559.5z"/>
<path class="st0" d="M1904.8,585.7c0.9-0.9,1.5-2.4,2.1-4.4c-0.7,0.8-1.4,1.4-2.2,1.9C1904.7,584.1,1904.8,584.8,1904.8,585.7z"/>
<path class="st0" d="M51.6,812.6c-0.1-0.9-0.2-1.5-0.3-2.3C51.1,811.6,51.1,812.6,51.6,812.6z"/>
<path class="st0" d="M1903.1,584.1c-0.8,0.2-1.6,0.4-2.4,0.4C1901.8,584.8,1902.6,584.7,1903.1,584.1z"/>
<path class="st0" d="M204.3,789.3c-1.5-3.6-2.7-7.6-3.6-11.5C202.5,787,195.4,791.2,204.3,789.3z"/>
<path class="st0" d="M1903.1,584.1c0.6-0.2,1.1-0.5,1.6-0.9c-0.1-2-0.2-3.8-0.7-4.9C1904,581.6,1903.8,583.3,1903.1,584.1z"/>
<path class="st0" d="M1231.1,686.7l-8.2-1.1C1225.3,686.6,1228.3,687,1231.1,686.7z"/>
<path class="st0" d="M566.2,747.4l-1.7,1.8C565.3,749.4,565.9,749,566.2,747.4z"/>
<path class="st0" d="M1199.3,690.2c-1.9-4.5-3.8-7-5.5-8.6c-0.2,1.1-0.5,1.9-0.6,3.5L1199.3,690.2z"/>
<path class="st0" d="M1927.4,554.9l1.1,1.1C1928.2,555.2,1927.8,554.7,1927.4,554.9z"/>
<path class="st0" d="M1377.5,649C1377.5,649,1377.5,649,1377.5,649C1377.5,649,1377.5,649,1377.5,649
	C1377.5,649,1377.5,649,1377.5,649z"/>
<path class="st0" d="M1425.1,639.6c-0.2,0-0.3,0.1-0.5,0.1C1424.8,639.8,1424.9,639.7,1425.1,639.6z"/>
<path class="st0" d="M99,798c-0.2,0-0.3-0.1-0.4-0.1C98.7,798,98.9,798.1,99,798z"/>
<path class="st0" d="M25.2,809.5c-0.1,0.2-0.2,0.4-0.3,0.7C24.9,809.9,25,809.7,25.2,809.5z"/>
<path class="st0" d="M1161.7,694.9c0.3-0.4,0.7-0.8,1-1.4C1162.2,693.9,1161.9,694.4,1161.7,694.9z"/>
<path class="st0" d="M592.6,749.5c-0.5,0.7-1,1.7-1.6,3C591.5,751.4,592.1,750.4,592.6,749.5z"/>
<path class="st0" d="M1375.3,655c2.5-1,6.4,2.4,5.1-7.1l-2.3,2.9c-0.2-0.6-0.4-1.1-0.6-1.7C1377.6,651,1376.4,653.2,1375.3,655z"/>
<polygon class="st0" points="550.3,755.7 549.9,752.4 548.9,755.5 "/>
<path class="st0" d="M1745.6,588.9c0.3,1.1,0.7,2.3,1.5,3.2C1747,591.3,1746.4,590.1,1745.6,588.9z"/>
<path class="st0" d="M1781.7,587.9l5.6,4.1C1784.7,589.6,1783,588.5,1781.7,587.9z"/>
<path class="st0" d="M1809.8,591.4c0.1-2.3,0-4.1-0.1-5.7c0,0,0,0-0.1-0.1L1809.8,591.4z"/>
<path class="st0" d="M1374.3,655.7c-2.2,2.8-0.6,1.6,1-0.7C1374.9,655.1,1374.6,655.3,1374.3,655.7z"/>
<path class="st0" d="M1501.7,610c-1.1,2.5-2.2,5-3.5,6.7C1500.6,617.4,1502.5,617.4,1501.7,610z"/>
<path class="st0" d="M1232.1,686.8c0-0.1,0-0.1,0-0.2c-0.3,0.1-0.6,0.1-0.9,0.1L1232.1,686.8z"/>
<path class="st0" d="M1492.2,617.1c2.6,2.4,4.5,1.6,6.1-0.4C1496.2,616,1493.8,614.9,1492.2,617.1z"/>
<path class="st0" d="M1930.8,584.6c-0.1-0.9-0.1-1.6-0.1-2.1l-1.3,1.7L1930.8,584.6z"/>
<path class="st0" d="M1930.7,582.4l1.3-1.7C1931.3,580.8,1930.7,581,1930.7,582.4z"/>
<path class="st0" d="M1934.7,577.1l-2.7,3.6C1933.1,580.6,1934.4,580.9,1934.7,577.1z"/>
<path class="st0" d="M1892.4,582.1l0.1,4.8C1892.6,585.9,1892.6,584.4,1892.4,582.1z"/>
<path class="st0" d="M1881.5,584.7c2.8,0.8,7.7,9.4,11.1,6l-0.1-3.8C1891.6,594.2,1883.1,576.4,1881.5,584.7z"/>
<polygon class="st0" points="1563.9,622.8 1564.5,611.6 1559.4,615.7 "/>
<path class="st0" d="M1958,539.5v-608H0v874.2l1.1,3.1L0,809v3.7c1.1-2,2-5.5,2.9-8.5c1.3,5.5,2.8,9.3,4.7,11.2l5.7-21.7
	c1.9,8.4-1.7,17.3,4.2,21.4c2.7-10.1-5.7-18.7-0.2-25.7c5,9.5,4.7,17.6,8.4,8.7c1.2,5.1,0.8,8.6-0.5,11.2
	c3.4-6.3,10.1-3.7,10.9-15.1c5.4,11.8,13.4-4.7,15.3,15.9c0.7-5.1,5.4-17,9-18.2c-4.1,25.4,14.1-0.1,15.3,26.5
	c2.6-22.7,17.2-11.9,24.7-25.1c-0.3,1.5-0.7,4.3-1.4,4.6c4.9,1.5,7.1,7.8,10.7,11.5c-1.4-18.4,6-23.4,9-35.2
	c8.1,17-1.4,21.9,2.4,38.7c-1.9-14.8,9.1-16,5.6-28.1c5.9,10.4,4.7,4.9,8.8,19.8c-1.7-23,4-4.4,6.3-18.8
	c8.1,10.5,4.1,21.2,10.9,13.4c4.3,6.6-1.4,15.5-1.4,15.5c7.7-0.5,1.7-17.3,2.2-27.4c8.6-5.9,5.6,12.2,9.7,20.7
	c5.2-5.2,7.8-21.5,12.1-21.3c0.6,2.8,1.6,3.8,1,7.4c4.5-14.4,17.8-2.6,22.9-20.7c0.7,1.5,1.1,2.9,1.4,4.2
	c-2.1-8.5-3.2-17.3-3.7-23.6c3.4-0.7,5.2-11.6,7.7-0.5c-2.1-0.1-1.8,4.5-2.4,8.1l3-5.3c5,15.9-4.3,6.2-3,18.2
	c6.4-6,13.1-20.4,19-16.4c2.9,15.7-12,6.7-3.2,20l-9-5.2c9.1,24.3-5.2-1.2,3.6,24.9c11.4,3.4,11.3-9.4,22.7-6
	c1.5-9.1-2.3-12.9-0.8-22c13.7-17.6,16.6,38.5,25.6,16.2c1.8-10.9,0.7-31.1,10-21.4l-0.8,18.2c10.8,0.6,3.2-26.5,15.6-15.6
	c-1.2,7.3-7.7,6.9-5.8,8.8c8.7,13.4,4-10.7,9.5-11.3l2.9,15.8c11-3.7,22.1-16.6,34.3-20.9c-0.2,4.8-1.8,10,1.7,14.5
	c14.8-9.7,33.8-1.8,50,6l4.3-14.4c1.4,0,3.2,5.9,2,8.7c6.5,4.5-0.7-8.7,1.6-14.4c3.3-1.3,5.3,7.4,3.6,11.7
	c9.1-12.8,26.9-28.3,39.6-14.9l-1.7,4.3c9.2,4.6,6.6-29.2,15.9-17.3l-1.3,2.6c19.2,3.9,38.4-10.9,54.8,8.2
	c0.5-20,19.4,6.8,17.5-20.9c12.1,12.5,9.6,17.7,25.6,25.3c4.1,0.8,4-17.9,8.7-21.3l1.7,14.4l5-15.8l5.5,16.8l4.2-4.2
	c-1.9-0.7-4.6-6-4.8-10.2c6.5-7.3,18.7,8.1,19.7,15.4l15.8-14.1c0.2,4.2-1.2,6.6-2.6,9.1c5.3-8,2.3,16.8,8.6,3.6
	c-1.5-3.2-0.3-8.6-0.5-11.6c5.1,8.2,14.6,7.3,21.2,2.8l-0.3,10.1c13,1.1,26.2-7.7,40.5-9.1c-5.6-4.1-6.3-21.4-2.4-23.5l3.3,15
	c1.7-9.7-5-5.3-0.7-17.4c5.5,1.2,5.5,16.9,3,22.2l5.9-6c0.9,4.5-0.4,7.1-0.1,12.9c1.6-9.7,12.8,14,14.9-2.8l0.9,4.5
	c14.2-1.4,20.1-7.4,31.6-9.4c-1.2-13.2,3.6-10.7,5.9-21.7c9,3.2,19.6,12.5,29.7,10.3c6.5-7.3,0.9-11.4,3.3-19.5
	c1.9,11.9,12,9.7,7.6,18.8c12.1-3.3,15.5-4.1,30-15.6c-2.2-4.7-4.4-6.6-3.8-10.8c2.6-2.3,7,4.3,7.2,10.1l-0.6,1.3
	c15.3-19.6,43.3,28.8,54.8,5.2l12.9-14.5c6.9,1.3-3,9.4,2.7,16.3c13.4-21.7,24.9,0.2,36.3-14.5c13.8,34.2,35-6.4,50.8,14.7l-1.7-8.2
	c2.6-8.5,4.7,4.3,7.5,5.9c-1.1-6.4-4.6-7.1-2.9-11.8c28.2-13.3,61.9,5.5,92.8,9.6c11.2,1,1.5-43.7,17.6-25.4l-2.2,15.9
	c20.2-21,45.5-4.4,65.5-22.5c-0.9,3.7-0.4,8.3-2.6,8.5c5.8,10.7,17-1.3,16.1-10.5c3.5,0.7,1.7,8.2,4.3,12.6
	c5.3,6.1,10-15.6,13.7-4.7c0.4,1.1-0.1,2.3-0.6,3.3c3.6-3.4,12.7,0,8.8-11.4c8.8,5.3,15-7.5,22.3-0.5c2.6-14.9,14.7,5.4,13.8-15.2
	c1.8,21.2,16.2,15.5,20.2,5c-1,6.6,5.2,6.1,4.2,15.2c5.9-0.9,10.8-5.5,8.6-16.2c13.6,24.1,19.5-22.8,29.2,9
	c16.2-13.3,31.6-22.8,46.7-29.5c1.8,21.1-17.2,4-14,26.1c14-10.3,20.6-29.4,35.9-25.9c4.1,2.4-1.2,9.4-2.1,13.1
	c13.9-10.3,29-1.3,41-14.2c-3.8-12.4,6.6-27.1,7.4-34.7c-0.9,26.2,13.9,4.8,10.7,39.8c1.5-2,3.2-6.8,2.1-13.1
	c2.8,1.6,4,5.2,2.2,12.8c8.8-6.2,4.3-16.1,12.8-16.8c0.5,4.6-1,6.6-1.3,12.2c3.3-9.5,6.6-19,14.2-15.9c-0.1,2.6,0.9,5.7-0.5,6.4
	c11.8-3.3,18-26.1,32.3-19c-1.8,20.6,5.3,6.1,8,23.5l6.7-6l-3.8-8.1c6.4-0.4,10.6-13.7,16.7-8.6l-3.9,7.7l11.6-4.6l-7.5-5.9
	c5.4-9.7-3.1-22,5.9-18.1c-1.5,2,6.4-0.5,10.8,9.4c0,0,0,0,0,0c2.5-5.9,5.1-12.1,10.3-8.3c1.8,5.4,1.1,19.4,2.4,23
	c1.5-14.5,13.8-6.2,16.5-20.4c-0.5,4.3,0.3,11.9,0.9,13.5l1.3-12.1c3.4,3.5,4,5.3,4.3,12.6c9.1,1.2-5.3-21.8,6.3-13.4
	c-0.7,1-0.1,2.8-1.7,4.8c11.1,3.8,19.6-9.8,29.9-5c4.8,17.2-8,5.2-3.1,19.7c13.6-4.7,26.7-24.2,40.7-21.6l-2.7-1.7
	c-0.8-24.6,11,10,16.7-0.8c-1.1,3.1-0.4,13.2-0.3,10.6c9.7,3,18.3-8.2,31.5-17.5l-1,6.6c6.1,5.1,14.8,1.7,21,3.9
	c1.1-6.5,4.5-5.9,1.5-14.9c22.2,34.2,32.6-23.3,52.1,5.1c-1.9,0.3-4,6.1-2.5,5.9l13.1-7.4c-2.3-10.7-2.5-6.3-6.3-14.4
	c1-6.6,4.4-12,7.8-12.4c-5.4,7.8,2,17.3,5.3,23.1c-0.8-3.3-0.3-7-0.9-10.3c9.3,18.4-1.2-21.9,10.1-10l0.1,5.7
	c3.4-3.3,5.9-11.2,10.1-10c3,12.3-3.3,6.3-2.4,16.6c5.5-1.3,8.4-24.9,14.8-13c-2,3.7-5.4,4.2-7.4,7.9c7.1,14,7.3,10.3,11.7,12.1
	l-0.4-0.3l10.2,5.6l-2.8-3.7c3.4-33.3,13.5-7.5,20.5-29.9c-6.9,21.2-0.2,11.8,0.6,26.1c2.8,3.7,7,7.7,6.4,11.8
	c3.2-11.9,8.4,8.2,12.8-9.2c0.8,4.5,4.8-0.1,5.1,11.5c5.4-4.2-2.2-7.8-2.4-13.5c7.2-16.6,23,16.6,33.4-6.2
	c8.1-8.1,9.9-19.9,15.3-28.7l6.1-0.6c0.5,5.9-2.6,11.9-2.6,11.9c6.3,6.1,10.4,4.4,15-1.4c-0.6,4.1,0.8,7.3,3,12.3
	c4.1-1.7,1-16.9,7.3-10.8c-0.4,5.2-0.7,13.4-2.2,18.8c4.5-4.7,8.5-13.8,13.1-18.5c2.2,7.8-1.8,12.4-3,17.8
	c5.4-4.2,14.2-8.8,14.6-21.6l-3.1-3c1,2.8,0.9,10.2-0.1,12.1c-3.9,10.4-7.6-3.6-8.4-8.1l3.3-3.3c-1.3-5.1-2.7-8-4-9.4l19.8-2
	c-2.4,8-4.5,21-0.9,34.3c1.7-15.2,3.2-9.1,4.9-27.2c2.7-2.1,5.6,4.4,5.7,10.1c0.6-4.1,4.8,2.9,5.3-7c-5.1-11.6-9.9-11.5-13.7-1.1
	c-1.3-2.9-1-6.4-0.9-9.2L1958,539.5z M321.8,756.8c0.7-0.3,1.8-0.6,3.6-1.4c0,0.1,0,0.2,0,0.3C323.9,756.1,322.6,756.5,321.8,756.8z
	 M333.8,753.7c-1-4.5-1-9.2,0.6-9.1c-0.5,3.1,3.3,5.3,6,8.9C338.5,753.2,336.2,753.4,333.8,753.7z M1706.1,578.7
	c-0.5-2.7-1-6.2-1.3-9.6l4.9-0.5C1709.7,572.5,1708.7,576.1,1706.1,578.7z M1857,561.9l-2.4-8.1l4.9-0.5
	C1859.2,555.9,1858.5,558.7,1857,561.9z M1896.7,559c-1-2.3-2-5.8-2.5-9.2l5.8-0.6L1896.7,559z M1901.5,561.8l0.6-12.8l12.3-1.2
	C1910.2,551.7,1905.9,562.2,1901.5,561.8z"/>
</svg>
