<svg xmlns="http://www.w3.org/2000/svg" xmlns:xlink="http://www.w3.org/1999/xlink" width="500" height="500" viewBox="0 0 500 500">
  <defs>
    <clipPath id="clip-Plan_de_travail_7">
      <rect width="500" height="500"/>
    </clipPath>
  </defs>
  <g id="Plan_de_travail_7" data-name="Plan de travail – 7" clip-path="url(#clip-Plan_de_travail_7)">
    <g id="Composant_5_2" data-name="Composant 5 – 2" transform="translate(110.409 102.18)">
      <path id="Tracé_204" data-name="Tracé 204" d="M383.647,196.716a32.829,32.829,0,1,0-33.125-32.833,32.9,32.9,0,0,0,33.125,32.833Zm59.018,4.512C423.7,227.722,398.4,230.741,371.3,214.776c-1.816-1.2-10.24-5.727-12.056-6.919-43.654-25.9-87.329-15.665-116.532,25.291-12.356,17.469,16.256,34.025,28.6,16.857,15.053-21.369,34.328-27.4,55.42-20.767-10.852,18.662-20.178,37.334-33.426,63.84-13.259,26.193-42.773,47.272-70.784,31.006-20.478-12.044-38.84,17.168-18.662,29.212,38.539,22.294,83.72,8.735,106.906-20.767a6.2,6.2,0,0,0,2.407,1.2c18.974,6.618,43.665,24.087,51.2,30.115,7.532,6.317,20.479,37.936,28.011,53.6,9.337,19.263,39.442,5.415,30.116-13.86-8.735-18.071-23.2-53.9-34.64-62.937-9.337-7.531-26.8-21.079-41.86-28.611,9.938-19.876,20.78-39.139,31.921-58.414,35.542,10.84,69.269-1.8,93.357-35.53,12.345-17.469-16.256-34.037-28.612-16.868Z" transform="translate(-195.121 -131.06)" fill-rule="evenodd"/>
    </g>
  </g>
</svg>
