<svg xmlns="http://www.w3.org/2000/svg" xmlns:xlink="http://www.w3.org/1999/xlink" width="500" height="500" viewBox="0 0 500 500">
  <defs>
    <clipPath id="clip-Plan_de_travail_6">
      <rect width="500" height="500"/>
    </clipPath>
  </defs>
  <g id="Plan_de_travail_6" data-name="Plan de travail – 6" clip-path="url(#clip-Plan_de_travail_6)">
    <g id="Composant_6_2" data-name="Composant 6 – 2" transform="translate(56.776 78.18)">
      <path id="Tracé_208" data-name="Tracé 208" d="M830.274,462.794q18.066,0,39.369-6.57m26.247-25.593c-28.431-22.645-32.45-33.609-44.845-42.748-12.394-8.774-18.949-6.584-19.3-10.234,0,0,2.536-18.63-3.277-21.929-2.927-1.46-13.137,18.643-13.137,18.643s-37.547-9.49-59.06,25.214a7.942,7.942,0,0,1-1.092,1.825,46.51,46.51,0,0,1-2.536-6.584,11.419,11.419,0,0,0,.351-6.935,10.881,10.881,0,0,0-13.122-8.044l-29.16,7.679-34.269-10.6a26.212,26.212,0,0,0-13.137-1.1,25.936,25.936,0,0,0-20.042,30.7l6.932,34.718c-16.413-2.934-35.726-2.934-64.157,8.76-6.2,3.3-9.846,1.825-16.4,1.825-6.2,0-40.838,7.679-41.2,38s-2.2,40.558-14.944,51.157c12.031,1.839,50.306,10.6,51.4-53.712,0-9.139,6.568-18.995,14.579-20.1-17.129,20.833-5.463,52.253-7.284,58.471-1.456,5.84-14.214,16.8-16.414,31.8-2.55,14.98,8.025,96.826,8.025,96.826h18.6s-1.833-96.826,6.556-97.556,26.609,97.556,26.609,97.556h22.982s-15.7-80.386-13.865-89.89,10.559-17.535,18.234-19.373c8.011-1.812,71.076-3.272,76.552.743s10.56,17.17,10.56,32.149c-.364,14.98-9.1,76.371-9.1,76.371H740.6s9.117-101.22,20.783-101.585c11.653,0,12.381,101.585,12.381,101.585h17.519s-4.032-85.862.35-123.513c3.278-25.579,14.579-53.347,21.863-69.422a114.032,114.032,0,0,0,16.062,1.46h.714c2.914,0,5.476-.365,8.377-.365a178.461,178.461,0,0,0,30.992-6.205h0c6.191-1.825,12.759-4.394,19.328-6.949,2.535-.73,5.1-1.825,6.568-3.65,3.641-4.38,4.005-5.854,4.005-5.854s2.185-4.38-3.654-9.139ZM815.7,456.575a91.93,91.93,0,0,0,22.6.743,17.631,17.631,0,0,1,4.37-.365c3.277-.73,6.568-1.095,9.846-1.839a145.1,145.1,0,0,0,25.153-6.935c-10.574-2.19-29.523,0-35-.731-15.294-2.555-17.128-8.76-22.591.365a88.113,88.113,0,0,0-4.383,8.761ZM751.9,407.256c-1.092-2.569-2.185-5.489-3.277-8.409l-14.579,5.124-20.783,5.475a7.992,7.992,0,0,1-2.913.365,10.045,10.045,0,0,1-3.277-.365l-11.68-3.664,9.117,44.952h-8.74c26.6,1.46,45.195,3.663,47.015-10.235a117.435,117.435,0,0,1,9.117-33.244Zm-76.552-43.127c13.123-9.5,16.414-27.769,7.3-40.923a29.289,29.289,0,0,0-40.825-7.3c-13.487,9.126-16.413,27.769-7.3,40.923a29.554,29.554,0,0,0,40.825,7.3ZM728.205,450l-.727.731h1.092Zm105.36-60.661a6.923,6.923,0,0,1,6.905,6.949,7.021,7.021,0,0,1-6.905,7.315,7.348,7.348,0,0,1-7.31-7.315,7.273,7.273,0,0,1,7.31-6.949Z" transform="translate(-513.495 -310.629)" fill-rule="evenodd"/>
    </g>
  </g>
</svg>
