<svg xmlns="http://www.w3.org/2000/svg" xmlns:xlink="http://www.w3.org/1999/xlink" width="500" height="500" viewBox="0 0 500 500">
  <defs>
    <clipPath id="clip-Plan_de_travail_5">
      <rect width="500" height="500"/>
    </clipPath>
  </defs>
  <g id="Plan_de_travail_5" data-name="Plan de travail – 5" clip-path="url(#clip-Plan_de_travail_5)">
    <g id="Composant_7_2" data-name="Composant 7 – 2" transform="translate(78.064 78.18)">
      <path id="Tracé_206" data-name="Tracé 206" d="M594.821,1046.1a11.173,11.173,0,0,0-16.1,0,9.162,9.162,0,0,1-13.054,0c-11.851-12.166-33.106-12.166-45.25,0a9.732,9.732,0,0,1-13.053,0c-12.144-12.166-33.095-12.166-45.238,0-3.64,3.351-9.717,3.351-13.053,0l-.607-.619c-12.144-11.548-32.791-11.244-44.935.619a9.357,9.357,0,0,1-12.762,0c-12.144-11.862-33.4-11.862-45.542,0-3.347,3.351-9.414,3.351-13.054,0-11.852-12.166-33.105-12.166-45.25,0a9.161,9.161,0,0,1-13.053,0,11.384,11.384,0,0,0-16.1,16.1,32.042,32.042,0,0,0,45.25,0c3.64-3.35,9.717-3.35,13.054,0,12.144,12.155,33.4,12.155,45.542,0a9.358,9.358,0,0,1,12.761,0,32.253,32.253,0,0,0,45.542,0c3.336-3.35,9.4-3.35,13.053,0l.607.608c12.144,11.547,32.791,11.243,44.643-.608a9.733,9.733,0,0,1,13.053,0c12.144,12.155,33.095,12.155,45.239,0a9.748,9.748,0,0,1,13.065,0,32.029,32.029,0,0,0,45.239,0,11.2,11.2,0,0,0,0-16.1Zm-238.976-27.064a16.745,16.745,0,0,1-9.706,7.308,16.211,16.211,0,0,1-11.841-1.832,16.748,16.748,0,0,1-7.291-9.738,12.429,12.429,0,0,1,1.82-11.245L393.2,892.62a27.792,27.792,0,0,1,9.425-9.423l83.186-50.441,56.169-94.833c2.438-5.171,6.078-8.207,11.234-9.421a18.942,18.942,0,0,1,14.581,2.44c4.864,2.72,7.9,6.375,9.111,11.547,1.517,5.161,1.214,10.019-1.213,14.28-11.245,18.834-65.279,117.31-77.434,123.988l-97.768,60.8ZM351.9,923.315a27.493,27.493,0,0,0,27.331-27.356,28.054,28.054,0,0,0-7.9-19.756,25.585,25.585,0,0,0-19.434-8.512c-7.583,0-13.964,2.744-19.727,8.512a27.094,27.094,0,0,0-8.2,19.756,25.29,25.29,0,0,0,8.2,19.148c5.763,5.476,12.144,8.208,19.727,8.208Z" transform="translate(-254.362 -727.973)" fill-rule="evenodd"/>
    </g>
  </g>
</svg>
