<svg xmlns="http://www.w3.org/2000/svg" xmlns:xlink="http://www.w3.org/1999/xlink" width="500" height="500" viewBox="0 0 500 500">
  <defs>
    <clipPath id="clip-Plan_de_travail_4">
      <rect width="500" height="500"/>
    </clipPath>
  </defs>
  <g id="Plan_de_travail_4" data-name="Plan de travail – 4" clip-path="url(#clip-Plan_de_travail_4)">
    <g id="Composant_3_5" data-name="Composant 3 – 5" transform="translate(152.905 78.169)">
      <path id="Tracé_205" data-name="Tracé 205" d="M365.925,664.776a13.455,13.455,0,0,0,.277,3.314l8.322,36.334a10.767,10.767,0,0,0,5.264,6.382l.564.267,18.306,8.332v40.767l-8.609,9.984-.544.831a10.31,10.31,0,0,0-2.5,7.49l1.672,40.479a10.771,10.771,0,0,0,9.984,10.271,10.988,10.988,0,0,0,11.092-10.271l1.385-35.215,10.815-11.092,10.815,11.092,1.385,35.215a10.541,10.541,0,0,0,21.076,0l1.672-40.479a9.916,9.916,0,0,0-2.5-7.49l-.543-.831-6.947-7.768V719.4l18.316-8.332.554-.267a11.017,11.017,0,0,0,5.264-6.382l8.311-36.334a10.018,10.018,0,0,0,.288-3.047h0c21.086-21.086,40.767-48.257,40.767-75.993h0v-6.372a97.069,97.069,0,1,0-194.138,0v6.372h0c0,27.448,18.86,54.363,39.659,75.726Zm64.347-5.839c-9.984-3.047-21.076,1.95-24.688,10.548a15.336,15.336,0,0,0-.554,8.589A25.566,25.566,0,0,1,397,659.491a7.95,7.95,0,0,1,.267-2.494c-14.14-32.168-13.586-67.4-13.586-67.671V584.34a17.043,17.043,0,0,1,16.921-17.2,17.252,17.252,0,0,1,17.187,16.079v50.474a34.36,34.36,0,0,1,5.551-.554,30.922,30.922,0,0,1,5.274.554V583.221a17.211,17.211,0,0,1,34.385,1.119v4.987c0,.266.554,35.5-13.586,67.671v2.494a26.812,26.812,0,0,1-5.828,16.376c.554-7.5-4.71-14.437-13.309-16.93Zm-24.965,20.245c1.672,5.274,6.095,9.707,12.765,11.656,10.261,3.048,21.353-1.949,24.677-10.548.277-.544.277-1.108.554-1.662h0c4.433-1.929,8.6-7.214,9.707-12.754a14.829,14.829,0,0,1,8.6-9.984,179.994,179.994,0,0,0,7.214-23.57,195.179,195.179,0,0,0,4.987-42.727h0V584.34a17.286,17.286,0,0,1,17.2-17.2,17.049,17.049,0,0,1,16.92,17.2v4.71h0c0,23.569-16.92,47.426-36.057,66.84h.277c-1.385.831-2.217,1.385-2.217,1.662a8.6,8.6,0,0,0-7.213,6.1l-9.707,30.239-15.535,6.095H408.087l-15.535-6.095-9.707-30.239c-.831-2.76-4.433-5.818-8.322-8.035-18.859-19.136-35.5-42.993-36.057-66.563v-4.71a17.2,17.2,0,0,1,34.4,0v4.71a181.581,181.581,0,0,0,4.987,43.271,124.062,124.062,0,0,0,7.214,23.57,13.325,13.325,0,0,1,8.322,9.984c1.385,5.541,5.274,10.825,9.984,12.754a4.959,4.959,0,0,0,1.939.554Zm74.043-15.248a3.916,3.916,0,0,0-.544-1.672v-.277a4.049,4.049,0,0,1,.544,1.949Z" transform="translate(-326.266 -485.598)" fill-rule="evenodd"/>
    </g>
  </g>
</svg>
