<svg xmlns="http://www.w3.org/2000/svg" xmlns:xlink="http://www.w3.org/1999/xlink" width="500" height="500" viewBox="0 0 500 500">
  <defs>
    <clipPath id="clip-Plan_de_travail_8">
      <rect width="500" height="500"/>
    </clipPath>
  </defs>
  <g id="Plan_de_travail_8" data-name="Plan de travail – 8" clip-path="url(#clip-Plan_de_travail_8)">
    <g id="Composant_4_2" data-name="Composant 4 – 2" transform="translate(78.308 78.18)">
      <path id="Tracé_209" data-name="Tracé 209" d="M642.505,609.568a28.769,28.769,0,0,0-57.536,0,28.768,28.768,0,1,0,57.536,0ZM558.59,873.237c-8.586-4.12-26.075-9.52-39.094,3.487-15.584,15.543-35.931.305-36.883-.316l-.317.622c-8.586-4.425-26.71-10.459-40.059,2.865-15.572,15.554-35.919.634-36.872,0l-1.27,1.6,1.27-1.913c-.318,0-26.71-17.761-44.822.317a23.14,23.14,0,0,1-20.664,6.667L411.41,556.578c38.777-1.585,85.186,34.9,116.354,64.411-2.87,4.121-2.87,9.508,1.893,13.64,24.487,22.222,52.455,38.07,84.245,46.969v66.619l-38.459,2.547a24.08,24.08,0,0,0-22.252,23.478,27.006,27.006,0,0,0-.635,5.4,476.162,476.162,0,0,1-1.917,62.169A16.338,16.338,0,0,0,565.27,859.6h1.588a16.249,16.249,0,0,0,16.207-14.92c1.6-17.455,2.541-32.681,2.541-46.956l56.594-4.132a23.62,23.62,0,0,0,22.252-25.379c0-.634-.318-1.256-.318-2.219s.318-2.218.318-3.17V667.957c0-28.572-39.106-32.059-48.645-10.483a185.974,185.974,0,0,1-69.3-39.349c-3.811-3.17-7.634-3.792-11.444-2.842-34.014-32.375-87.1-73.614-130.973-67.275l1.27,8.253-71.2,329.031a78.862,78.862,0,0,1-10.491-5.4l-2.54,3.181c0,.305,5.08,3.8,12.4,6.339l-.318.317h1.27A43.286,43.286,0,0,0,344.018,891a26.656,26.656,0,0,0,19.394-7.923c15.572-15.554,38.141-.634,39.412,0,.635.634,11.126,7.923,23.2,7.923a27.147,27.147,0,0,0,19.394-7.923c15.572-15.883,38.459-.634,39.411.305l.317-.622a36.109,36.109,0,0,0,18.124,5.072c6.363,0,13.043-1.9,19.394-8.253,12.079-12.056,28.933-5.389,35.919-1.585Z" transform="translate(-321.131 -547.357)" fill-rule="evenodd"/>
    </g>
  </g>
</svg>
