<svg xmlns="http://www.w3.org/2000/svg" xmlns:xlink="http://www.w3.org/1999/xlink" width="500" height="500" viewBox="0 0 500 500">
  <defs>
    <clipPath id="clip-Plan_de_travail_2">
      <rect width="500" height="500"/>
    </clipPath>
  </defs>
  <g id="Plan_de_travail_2" data-name="Plan de travail – 2" clip-path="url(#clip-Plan_de_travail_2)">
    <g id="Composant_1_3" data-name="Composant 1 – 3" transform="translate(59.374 78.169)">
      <path id="Tracé_210" data-name="Tracé 210" d="M253.445,652.987a21.58,21.58,0,0,0,21.363-21.378,21.356,21.356,0,0,0-42.712,0,21.567,21.567,0,0,0,21.349,21.378ZM403.338,856.258c-4.967-10.287-17.934-18.3-29.378-18.3h-8.777c-8.382,0-20.587-5.348-26.3-11.445l-64.075-69.422.381-80.075c12.967-11.061,27.839-24.805,30.887-30.14,3.443-7.239,5.334-24.4,5.729-27.458.381-4.953-3.062-9.539-8.015-9.92h-1.143a9.4,9.4,0,0,0-9.158,8c-.762,7.633-2.286,17.567-3.81,21-1.524,2.286-10.3,10.682-19.458,18.682H238.573A254.526,254.526,0,0,1,219.115,638.5c-1.524-3.429-3.048-13.362-3.81-21-.381-4.572-4.572-8-9.158-8h-.762a9.32,9.32,0,0,0-8.381,9.92c.381,3.063,2.286,20.219,6.11,27.458,2.272,4.968,16.4,17.553,28.587,28.235l1.919,81.98L168.021,884.1a13.132,13.132,0,0,1-11.839,7.253,14.206,14.206,0,0,1-5.715-1.129L126.072,878a22.337,22.337,0,0,0-9.92-2.285c-8.4,0-16.41,4.586-20.22,11.429l-28.22,51.883c-1.9,3.428-2.286,6.858-.381,9.92,1.524,2.652,4.572,4.19,8.777,4.19H437.273a10.4,10.4,0,0,0,8.777-4.19,10.269,10.269,0,0,0-.381-9.92ZM240.858,761.677l26.316.38,65.217,70.552c3.81,4.19,9.524,7.633,15.634,10.3a7.9,7.9,0,0,0-2.286,3.81l-19.077,53.774c-1.51,4.585-5.715,5.348-9.144,1.919l-2.3-2.681a135.054,135.054,0,0,1-10.286-14.111l-3.429-5.715c-2.286-4.19-6.1-5.714-8.777-3.8-2.286,2.272-5.334.367-6.872-4.6l-5.715-16.4c-1.524-4.952-5.334-5.335-8.4-1.525l-9.524,11.825c-3.048,3.81-5.729,3.062-5.729-1.9v-18.7c0-4.953-3.048-6.1-6.477-3.048l-8.777,8.014c-3.81,3.43-6.1,2.3-5.334-2.666l4.953-32.059c.762-4.938-1.524-6.081-5.348-3.033l-1.891,1.891c-3.824,3.076-6.11,1.538-5.348-3.033l7.239-38.155Zm15.253-19.062a15.965,15.965,0,0,0-1.9-.4,11.739,11.739,0,0,0-3.443.763V722.776h5.348ZM373.96,846.72c8.015,0,17.92,6.109,21.744,13.362l19.063,37.758-5.715-1.918c-4.586-1.51-8.4.776-8.4,4.953,0,4.2-2.286,4.6-4.953.762l-.762-1.143c-3.062-3.8-6.491-7.239-8.4-7.239s-4.572-3.034-6.1-7.253c-1.538-3.81-4.586-5.7-6.491-3.81-2.286,1.9-4.191-.748-4.191-5.333v-3.443c0-4.939-3.429-8.762-7.634-8.762s-6.858-3.825-5.715-8.777c0,0,.748-3.048,1.524-6.857a4.206,4.206,0,0,0,0-3.048,25.1,25.1,0,0,0,7.239.749Z" transform="translate(-66.078 -609.498)" fill-rule="evenodd"/>
    </g>
  </g>
</svg>
