<svg xmlns="http://www.w3.org/2000/svg" xmlns:xlink="http://www.w3.org/1999/xlink" width="500" height="500" viewBox="0 0 500 500">
  <defs>
    <clipPath id="clip-Plan_de_travail_3">
      <rect width="500" height="500"/>
    </clipPath>
  </defs>
  <g id="Plan_de_travail_3" data-name="Plan de travail – 3" clip-path="url(#clip-Plan_de_travail_3)">
    <g id="Composant_2_4" data-name="Composant 2 – 4" transform="translate(93.663 78.169)">
      <path id="Tracé_207" data-name="Tracé 207" d="M180.354,392.3c18.678,13,63.363,44.351,70.7,50.014,9.327,7.341,31.348,26.685,7.994,55.356-17,21.01-40.342,52.025-50.347,65.694l118.04-13.67c.666,0,26.339-1.666,35.346-17,3.331-6.008,3.676-13.682,1.012-22.676l12.337-1.345c4,13.016,3.319,24.341-2.011,33.347-9.66,16.347-31.348,20.344-39.676,21.344a19.36,19.36,0,0,1-3.331.333L70.987,593.369l-4.01-13.657,89.381-10.351s57.355-73.356,63.35-81.35,4-14.681-4-20.677c-7.674-5.674-21.01-13.669-32.68-21.676-11-7.328-27.351-29.35-14.336-53.691l-49.027-.666s-3,9.006-6.329,11.337c-3.343,2.665-9.339,3-9.339,3l.333-16L89,385.306l15-3.343c-.333.333.333-14.669.333-14.669a13.819,13.819,0,0,1,9.339,3.343,25.721,25.721,0,0,1,5.675,9.327l45.671.666s3.676-32.347,43.685-60.685c10.005-7.341,29.683-11.671,40.342,3.331,10.684,15,20.689,49.693,20.689,49.693s37.011-1.344,47-.666c20.677,1.32,23.009,14,0,19-37.011,8.34-54.677,11.671-62.351,5.675-7.34-6.008-16.334-22.675-16.334-22.675l-11.671,18.666Zm97.709-130.71a28.121,28.121,0,1,0-6.674,39.01,27.859,27.859,0,0,0,6.674-39.01Z" transform="translate(-66.977 -249.728)" fill-rule="evenodd"/>
    </g>
  </g>
</svg>
