<svg xmlns="http://www.w3.org/2000/svg" xmlns:xlink="http://www.w3.org/1999/xlink" width="500" height="500" viewBox="0 0 500 500">
  <defs>
    <clipPath id="clip-Plan_de_travail_1">
      <rect width="500" height="500"/>
    </clipPath>
  </defs>
  <g id="Plan_de_travail_1" data-name="Plan de travail – 1" clip-path="url(#clip-Plan_de_travail_1)">
    <g id="bicycle" transform="translate(48 111.18)">
      <path id="bicycle-2" data-name="bicycle" d="M328.219,132.953c-1.111,0-2.188.123-3.276.168l-18.971-88.51h47.49V19.37H290.355a12.621,12.621,0,0,0-12.341,15.268l7.55,35.213H156.4L143.78,31.991h32.984V6.75H88.415V31.991h28.776L130.329,71.4,97.895,136.262a75.72,75.72,0,1,0,52.493,85.033h32.939a25.131,25.131,0,0,0,19.712-9.468l89.078-111.361,8.134,37.917a75.605,75.605,0,1,0,27.969-5.43ZM75.794,259.155a50.481,50.481,0,1,1,10.557-99.829L64.519,203.032l.112.056a12.349,12.349,0,0,0,8.208,17.881,12.532,12.532,0,0,0,14.129-6.708l.123.056,21.731-43.5a50.267,50.267,0,0,1-33.028,88.342Zm74.594-63.1a75.71,75.71,0,0,0-29.954-48.417l21.181-42.382,30.269,90.8Zm43.641-13.383-29.2-87.579h99.265Zm134.189,76.485a50.335,50.335,0,0,1-22.539-95.409l10.2,47.576.247-.056a12.442,12.442,0,0,0,12.094,10.029,12.621,12.621,0,0,0,12.621-12.62,11.934,11.934,0,0,0-.527-2.6l.247-.056-10.2-47.62a50.392,50.392,0,1,1-2.143,100.76Z" transform="translate(0.006 -6.75)"/>
    </g>
  </g>
</svg>
